# xmcd CD database file
#
# Track frame offsets:
#	150
#	17937
#	36987
#	54807
#
# Disc length: 983 seconds
#
# Revision: 0
# Processed by: cddbd v1.5PL3 Copyright (c) Steve Scherf et al.
# Submitted via: CDex 1.51
#
DISCID=2a03d504
DTITLE=mihimaru GT - 帰ろう歌
DYEAR=2004
DGENRE=J ポップ
TTITLE0=帰ろう歌
TTITLE1=Air Grou
TTITLE2=帰ろう歌 (Instrumental)
TTITLE3=Air Grou (Instrumental)
EXTD=YEAR: 2004
EXTT0=
EXTT1=
EXTT2=
EXTT3=
PLAYORDER=
